name C:\Users\u0101727\Documents\MyRepositories\upper-imu-dc\Results\main_tracking\Case_22\kinematics.mot
datacolumns 10
datarows 56
range 1.37000000 1.92000000
endheader 
time	clav_prot	clav_elev	scapula_abduction	scapula_elevation	scapula_upward_rot	scapula_winging	plane_elv	shoulder_elv	axial_rot	
          1.37000000	        -20.36604266	         14.63728426	         -4.06138184	          6.05549948	         30.43610003	         -1.26502135	         12.29332330	          5.56642296	         18.25580974	
          1.38000000	        -20.49329974	         14.93397279	         -4.21200591	          6.19976449	         30.75019935	         -1.31599225	         13.77792813	          5.36716174	         17.02564644	
          1.39000000	        -20.58265616	         15.21159861	         -4.29509032	          6.33608837	         31.04663285	         -1.36397510	         15.18366607	          5.17157867	         15.87066173	
          1.40000000	        -20.63829561	         15.46976303	         -4.31662808	          6.46362006	         31.32697143	         -1.40929513	         16.50080545	          4.97697339	         14.82231675	
          1.41000000	        -20.67055186	         15.70816181	         -4.29535726	          6.58144765	         31.59169087	         -1.45207148	         17.72726705	          4.78260118	         13.90008518	
          1.42000000	        -20.69054366	         15.92601425	         -4.25237199	          6.68849672	         31.84007641	         -1.49230769	         18.86557885	          4.58969584	         13.11184463	
          1.43000000	        -20.70677813	         16.12164232	         -4.20441006	          6.78342053	         32.07020284	         -1.52990615	         19.91973505	          4.40131791	         12.45567952	
          1.44000000	        -20.72498277	         16.29254738	         -4.16342149	          6.86464023	         32.27906931	         -1.56464562	         20.89303733	          4.22200732	         11.92223370	
          1.45000000	        -20.74905780	         16.43594489	         -4.13841811	          6.93062243	         32.46290015	         -1.59614338	         21.78737839	          4.05728060	         11.49704985	
          1.46000000	        -20.78187449	         16.54955293	         -4.13694111	          6.98029079	         32.61774481	         -1.62386778	         22.60353670	          3.91286631	         11.16282508	
          1.47000000	        -20.82575201	         16.63254091	         -4.16632727	          7.01364887	         32.73972426	         -1.64700097	         23.34169467	          3.79431281	         10.90168902	
          1.48000000	        -20.88270228	         16.68638183	         -4.23340887	          7.03209430	         32.82650005	         -1.66472230	         24.00216436	          3.70544029	         10.69684307	
          1.49000000	        -20.95660480	         16.71504607	         -4.34897587	          7.03848504	         32.87705517	         -1.67611884	         24.58480148	          3.64853076	         10.53471800	
          1.50000000	        -21.08291150	         16.72635117	         -4.58352344	          7.03590144	         32.89403009	         -1.68121822	         25.08902555	          3.62216853	         10.40499930	
          1.51000000	        -21.15785609	         16.71551503	         -4.73037796	          7.02584120	         32.88263966	         -1.68111261	         25.51266331	          3.62275281	         10.30287533	
          1.52000000	        -21.13240537	         16.68941823	         -4.68453126	          7.01268644	         32.86061095	         -1.67874307	         25.85202775	          3.63290397	         10.22678882	
          1.53000000	        -21.13571128	         16.67409561	         -4.68357682	          7.00175998	         32.85801857	         -1.68104616	         26.10023490	          3.62099511	         10.17963423	
          1.54000000	        -21.32480618	         16.68992334	         -5.02995951	          6.99609426	         32.88741052	         -1.69160077	         26.24686551	          3.57278829	         10.16769318	
          1.55000000	        -21.49999418	         16.70418520	         -5.35664929	          6.99191448	         32.90728813	         -1.70025242	         26.27682578	          3.53177909	         10.20420397	
          1.56000000	        -21.59143233	         16.70109026	         -5.53454505	          6.98526402	         32.90141973	         -1.70205218	         26.18018254	          3.51556073	         10.29797233	
          1.57000000	        -21.62644319	         16.68258514	         -5.61265970	          6.97490944	         32.87514705	         -1.69847277	         25.95599025	          3.51871242	         10.45148970	
          1.58000000	        -21.62443734	         16.65267561	         -5.62329316	          6.96089761	         32.83693920	         -1.69193790	         25.61490008	          3.53296509	         10.65984216	
          1.59000000	        -21.60014992	         16.61541623	         -5.59099106	          6.94385115	         32.79388810	         -1.68446671	         25.18218873	          3.55225268	         10.90872639	
          1.60000000	        -21.56476116	         16.57476032	         -5.53568259	          6.92506007	         32.75049543	         -1.67717613	         24.69873555	          3.57393321	         11.17379370	
          1.61000000	        -21.52650810	         16.53444288	         -5.47379081	          6.90637076	         32.70865964	         -1.67025899	         24.21835486	          3.59859238	         11.42211997	
          1.62000000	        -21.48981479	         16.49729647	         -5.41609877	          6.88972898	         32.66772500	         -1.66310089	         23.80054720	          3.62962139	         11.61665295	
          1.63000000	        -21.45220987	         16.46405048	         -5.36115621	          6.87649167	         32.62443758	         -1.65443265	         23.49980363	          3.67280463	         11.72311606	
          1.64000000	        -21.40139364	         16.43290858	         -5.28830921	          6.86702400	         32.57422861	         -1.64279697	         23.35469033	          3.73449653	         11.71736956	
          1.65000000	        -21.31834468	         16.40259675	         -5.16098314	          6.86166103	         32.51643933	         -1.62784697	         23.38156246	          3.81561794	         11.58988056	
          1.66000000	        -21.21445784	         16.38155892	         -4.99171430	          6.86246896	         32.46767789	         -1.61385310	         23.57295909	          3.89682296	         11.34702922	
          1.67000000	        -21.20447238	         16.38768508	         -4.98406602	          6.86939389	         32.45885065	         -1.60959522	         23.90377274	          3.94249990	         11.00522707	
          1.68000000	        -21.23762950	         16.40307327	         -5.04624192	          6.87617761	         32.47123037	         -1.61128247	         24.33359345	          3.96938525	         10.59599350	
          1.69000000	        -21.28373502	         16.41929898	         -5.11472796	          6.87827402	         32.50548490	         -1.62024096	         24.82537537	          3.97383747	         10.14403302	
          1.70000000	        -21.50449263	         16.43336379	         -5.51339450	          6.86781038	         32.54185359	         -1.63516715	         25.33563656	          3.97393512	          9.68411349	
          1.71000000	        -21.62108655	         16.41488186	         -5.72247940	          6.84672353	         32.54379223	         -1.64315441	         25.83872959	          4.00584944	          9.23396930	
          1.72000000	        -21.66716026	         16.37092116	         -5.81168674	          6.81848467	         32.51044081	         -1.64238841	         26.32096681	          4.06861407	          8.80472977	
          1.73000000	        -21.66693395	         16.31628357	         -5.82561187	          6.78991710	         32.45446669	         -1.63463761	         26.78161313	          4.14745955	          8.39653239	
          1.74000000	        -21.63659767	         16.26417628	         -5.79262896	          6.76717515	         32.38828624	         -1.62199247	         27.22548999	          4.22864305	          8.00564218	
          1.75000000	        -21.58677203	         16.22426504	         -5.73106177	          6.75481942	         32.32102482	         -1.60605905	         27.65714571	          4.30230567	          7.62769138	
          1.76000000	        -21.52409214	         16.20261157	         -5.65238416	          6.75572580	         32.25831971	         -1.58784755	         28.07515935	          4.36212114	          7.26100717	
          1.77000000	        -21.45290347	         16.20202255	         -5.56410830	          6.77110007	         32.20300984	         -1.56794525	         28.46774808	          4.40411660	          6.90883202	
          1.78000000	        -21.37597778	         16.22218649	         -5.47098360	          6.80047110	         32.15544954	         -1.54661093	         28.81018031	          4.42604041	          6.58065587	
          1.79000000	        -21.29259146	         16.25933338	         -5.37139271	          6.84162045	         32.11319257	         -1.52372134	         29.06510859	          4.42766690	          6.29202696	
          1.80000000	        -21.17211538	         16.30162253	         -5.20635459	          6.88931525	         32.06827289	         -1.49837747	         29.18369028	          4.41402663	          6.06563227	
          1.81000000	        -21.20139134	         16.34846673	         -5.34627034	          6.93543142	         32.00462692	         -1.46881791	         29.11386696	          4.39876470	          5.92684474	
          1.82000000	        -20.98100470	         16.36104691	         -5.00028212	          6.97415791	         31.92631970	         -1.43712060	         28.80643002	          4.37444563	          5.90362340	
          1.83000000	        -20.94860802	         16.37243432	         -5.01831721	          7.00230150	         31.84167866	         -1.40654158	         28.22627780	          4.32983576	          6.02152354	
          1.84000000	        -20.90868137	         16.35843729	         -5.01473522	          7.01433492	         31.74699256	         -1.37765472	         27.35707437	          4.26830942	          6.30218536	
          1.85000000	        -20.87151279	         16.31228220	         -5.00941040	          7.00574996	         31.63710788	         -1.35025865	         26.20995116	          4.19638517	          6.75747032	
          1.86000000	        -20.84024679	         16.23036635	         -5.00894777	          6.97440807	         31.50875284	         -1.32395132	         24.82946509	          4.12039097	          7.38348986	
          1.87000000	        -20.81473106	         16.11152701	         -5.01459281	          6.92002241	         31.35937067	         -1.29793698	         23.29326537	          4.04774518	          8.15662717	
          1.88000000	        -20.79357230	         15.95609442	         -5.02606088	          6.84346131	         31.18654645	         -1.27106116	         21.70547342	          3.98716289	          9.03203567	
          1.89000000	        -20.77490344	         15.76491637	         -5.04263850	          6.74604732	         30.98771134	         -1.24193322	         20.18379731	          3.94825793	          9.94609830	
          1.90000000	        -20.75663774	         15.53831955	         -5.06287296	          6.62873887	         30.76031613	         -1.20920231	         18.84241238	          3.94062994	         10.82363692	
          1.91000000	        -20.73632950	         15.27519554	         -5.08338689	          6.49136519	         30.50228329	         -1.17187419	         17.77412966	          3.97279762	         11.58957493	
          1.92000000	        -20.71112971	         14.97229467	         -5.09807638	          6.33201104	         30.21243650	         -1.12954472	         17.03530474	          4.05132153	         12.18323111	
